<?xml version="1.0" standalone="no"?>
<!DOCTYPE svg PUBLIC "-//W3C//DTD SVG 20010904//EN"
 "http://www.w3.org/TR/2001/REC-SVG-20010904/DTD/svg10.dtd">
<svg version="1.0" xmlns="http://www.w3.org/2000/svg"
 width="452.000000pt" height="452.000000pt" viewBox="0 0 452.000000 452.000000"
 preserveAspectRatio="xMidYMid meet">
<metadata>
Created by potrace 1.16, written by Peter Selinger 2001-2019
</metadata>
<g transform="translate(0.000000,452.000000) scale(0.100000,-0.100000)"
fill="#000000" stroke="none">
<path d="M2129 4321 c-26 -10 -399 -216 -829 -457 -845 -474 -857 -482 -908
-591 l-27 -58 0 -955 0 -955 27 -57 c52 -112 60 -117 907 -592 431 -241 806
-447 832 -457 67 -26 192 -26 258 0 27 10 402 216 832 457 848 475 855 480
907 592 l27 57 0 955 0 955 -27 58 c-52 110 -63 117 -907 591 -430 241 -804
447 -832 457 -66 25 -196 25 -260 0z m977 -615 c428 -241 792 -450 808 -464
58 -55 56 -14 56 -982 0 -968 2 -927 -56 -982 -16 -14 -380 -224 -809 -465
l-780 -438 -65 0 -65 0 -780 438 c-429 242 -793 451 -809 465 -58 55 -56 14
-56 982 0 968 -2 927 56 982 25 22 1495 856 1579 894 18 9 53 13 86 11 52 -3
98 -27 835 -441z"/>
<path d="M2068 3424 c-175 -27 -363 -107 -508 -215 -578 -432 -644 -1259 -142
-1773 212 -217 480 -337 787 -353 316 -16 621 94 848 307 81 76 207 222 207
239 0 4 -116 74 -257 156 -142 82 -265 153 -275 159 -13 8 -31 -5 -93 -62 -88
-82 -169 -125 -278 -148 -276 -59 -562 135 -622 421 -8 39 -15 86 -15 105 0
19 7 67 15 105 60 286 346 480 622 421 109 -23 190 -66 278 -148 62 -57 80
-70 93 -62 10 6 133 77 275 159 141 82 257 152 257 156 0 17 -126 163 -207
239 -259 243 -621 351 -985 294z m343 -189 c144 -25 273 -76 389 -155 60 -41
160 -128 160 -139 0 -4 -51 -37 -114 -73 l-114 -66 -54 40 c-63 49 -192 110
-268 129 -76 19 -250 17 -330 -4 -203 -53 -378 -195 -470 -382 -57 -115 -74
-189 -74 -325 0 -136 17 -209 73 -325 91 -184 256 -320 458 -377 93 -26 257
-30 343 -9 76 19 205 80 268 129 l54 40 114 -66 c63 -36 114 -69 114 -73 0
-11 -100 -98 -160 -139 -116 -79 -245 -130 -389 -155 -219 -39 -456 8 -663
131 -112 66 -266 220 -332 332 -90 151 -146 348 -146 511 0 601 559 1078 1141
976z"/>
<path d="M3160 2630 l0 -90 -90 0 -90 0 0 -95 0 -95 90 0 90 0 0 -90 0 -90
-90 0 -90 0 0 -95 0 -95 90 0 90 0 0 -90 0 -90 95 0 95 0 0 90 0 90 85 0 85 0
0 -90 0 -90 95 0 95 0 0 90 0 90 90 0 90 0 0 95 0 95 -90 0 -90 0 0 90 0 90
90 0 90 0 0 95 0 95 -90 0 -90 0 0 90 0 90 -95 0 -95 0 0 -90 0 -90 -85 0 -85
0 0 90 0 90 -95 0 -95 0 0 -90z m360 -370 l0 -90 -85 0 -85 0 0 90 0 90 85 0
85 0 0 -90z"/>
</g>
</svg>
