<?xml version="1.0" standalone="no"?>
<!DOCTYPE svg PUBLIC "-//W3C//DTD SVG 20010904//EN"
 "http://www.w3.org/TR/2001/REC-SVG-20010904/DTD/svg10.dtd">
<svg version="1.0" xmlns="http://www.w3.org/2000/svg"
 width="1083.000000pt" height="1024.000000pt" viewBox="0 0 1083.000000 1024.000000"
 preserveAspectRatio="xMidYMid meet">
<metadata>
Created by potrace 1.16, written by Peter Selinger 2001-2019
</metadata>
<g transform="translate(0.000000,1024.000000) scale(0.100000,-0.100000)"
fill="#000000" stroke="none">
<path d="M527 10216 c10 -14 180 -223 378 -465 l360 -440 248 0 c136 -1 247 2
247 5 0 3 -124 212 -276 465 l-275 459 -350 0 -351 0 19 -24z"/>
<path d="M4665 10026 l-840 -173 2 -29 c1 -16 39 -375 83 -799 l82 -770 230
-775 c127 -426 232 -776 232 -777 2 -3 1721 348 1725 353 2 2 -13 256 -34 564
-21 309 -36 563 -33 565 4 5 327 55 2103 331 666 103 1214 191 1219 195 9 8
-263 1327 -282 1370 -6 14 -226 -46 -1612 -437 -883 -250 -1612 -454 -1620
-454 -11 0 -64 139 -190 503 -166 475 -177 502 -200 504 -14 1 -403 -76 -865
-171z"/>
<path d="M2305 9955 c-264 -13 -497 -25 -518 -27 l-37 -3 380 -675 c369 -654
380 -675 356 -681 -14 -4 -81 -10 -150 -14 -70 -4 -129 -11 -131 -15 -3 -5
300 -408 673 -897 l679 -888 216 -3 c120 -1 217 0 217 2 0 2 -171 337 -380
743 -208 406 -382 746 -386 756 -6 17 3 17 156 11 l163 -7 -6 24 c-3 13 -154
401 -334 861 l-328 838 -45 -1 c-25 -1 -261 -12 -525 -24z"/>
<path d="M941 8926 l-285 -11 75 -66 c294 -261 2332 -2019 2336 -2015 3 2
-379 477 -848 1055 l-853 1051 -71 -2 c-38 -1 -198 -6 -354 -12z"/>
<path d="M1371 7328 c-5 -13 -61 -145 -125 -295 -64 -150 -116 -275 -116 -278
0 -3 275 -5 610 -5 336 0 610 4 610 8 0 8 -951 592 -964 592 -4 0 -10 -10 -15
-22z"/>
<path d="M2220 5940 l0 -350 -1110 0 -1110 0 0 -155 c0 -86 7 -221 15 -301 59
-557 225 -987 487 -1260 329 -343 982 -718 1601 -920 l117 -38 0 -223 0 -223
623 0 622 0 28 -35 c124 -156 140 -434 34 -601 -38 -61 -121 -132 -195 -167
l-67 -32 -522 -3 -523 -3 0 -814 0 -815 3520 0 3520 0 0 815 0 815 -586 0
-587 0 6 243 c6 241 19 368 57 567 135 691 461 1270 945 1677 236 199 471 329
849 470 194 72 577 180 789 223 l57 11 0 385 0 384 -765 0 -765 0 0 350 0 350
-3520 0 -3520 0 0 -350z"/>
</g>
</svg>
