<?xml version="1.0" standalone="no"?>
<!DOCTYPE svg PUBLIC "-//W3C//DTD SVG 20010904//EN"
 "http://www.w3.org/TR/2001/REC-SVG-20010904/DTD/svg10.dtd">
<svg version="1.0" xmlns="http://www.w3.org/2000/svg"
 width="213.000000pt" height="240.000000pt" viewBox="0 0 213.000000 240.000000"
 preserveAspectRatio="xMidYMid meet">
<metadata>
Created by potrace 1.16, written by Peter Selinger 2001-2019
</metadata>
<g transform="translate(0.000000,240.000000) scale(0.100000,-0.100000)"
fill="#00000" stroke="none">
<path d="M614 2090 c-61 -16 -152 -45 -202 -65 l-92 -37 -51 -84 c-71 -118
-151 -292 -187 -405 -60 -188 -74 -275 -79 -515 l-5 -220 93 -61 c120 -78 251
-143 368 -184 89 -31 92 -31 106 -13 32 44 95 155 95 169 0 9 -33 30 -80 51
-44 20 -80 41 -80 46 0 22 36 17 146 -21 175 -59 277 -74 464 -68 166 5 280
28 422 83 62 25 98 27 98 6 0 -5 -36 -26 -79 -45 -44 -20 -82 -40 -85 -45 -4
-8 56 -116 96 -171 l17 -24 92 32 c51 18 133 53 183 78 93 46 255 147 269 167
4 6 6 108 3 226 -3 164 -9 239 -25 314 -37 180 -102 354 -193 520 -90 161 -89
161 -192 200 -106 41 -242 81 -309 91 l-46 7 -28 -56 -27 -56 -61 7 c-33 4
-114 7 -180 7 -66 0 -147 -3 -180 -7 l-61 -7 -27 55 c-32 66 -29 65 -183 25z
m181 -678 c36 -19 74 -66 90 -111 65 -185 -118 -351 -274 -248 -106 70 -110
263 -7 342 54 41 134 49 191 17z m705 3 c63 -32 103 -107 103 -190 0 -120 -77
-207 -183 -207 -155 0 -242 194 -148 332 55 81 146 106 228 65z"/>
</g>
</svg>
