<?xml version="1.0" standalone="no"?>
<!DOCTYPE svg PUBLIC "-//W3C//DTD SVG 20010904//EN"
 "http://www.w3.org/TR/2001/REC-SVG-20010904/DTD/svg10.dtd">
<svg version="1.0" xmlns="http://www.w3.org/2000/svg"
 width="980.000000pt" height="982.000000pt" viewBox="0 0 980.000000 982.000000"
 preserveAspectRatio="xMidYMid meet">
<metadata>
Created by potrace 1.16, written by Peter Selinger 2001-2019
</metadata>
<g transform="translate(0.000000,982.000000) scale(0.100000,-0.100000)"
fill="#fffff" stroke="none">
<path d="M7166 9799 c-457 -47 -882 -222 -1256 -517 -126 -99 -2140 -2113
-2242 -2242 -217 -273 -372 -582 -454 -906 -47 -189 -65 -315 -71 -524 -13
-423 67 -783 258 -1160 112 -221 275 -447 427 -592 120 -114 223 -158 367
-158 285 0 508 222 507 505 0 158 -40 246 -176 396 -190 207 -306 445 -351
718 -27 161 -17 397 23 554 47 182 123 340 234 493 29 39 490 507 1072 1090
1101 1100 1092 1092 1299 1193 189 92 344 131 557 138 299 11 570 -66 820
-232 96 -64 291 -258 358 -356 102 -151 175 -322 214 -502 32 -146 32 -408 0
-555 -39 -179 -107 -341 -209 -495 -34 -51 -193 -219 -553 -582 -286 -288
-520 -532 -538 -562 -161 -255 -69 -593 196 -726 92 -46 166 -61 267 -54 94 6
171 33 252 87 75 50 1006 985 1105 1110 272 341 437 724 505 1170 24 159 24
501 0 660 -66 431 -230 816 -489 1147 -99 126 -312 336 -438 430 -327 245
-692 399 -1090 458 -135 20 -463 28 -594 14z"/>
<path d="M5450 6097 c-219 -75 -352 -257 -352 -482 0 -157 39 -246 176 -396
190 -207 306 -445 351 -718 27 -160 17 -397 -23 -551 -49 -188 -119 -336 -233
-492 -89 -121 -2064 -2092 -2174 -2170 -234 -165 -470 -244 -755 -255 -220 -7
-397 25 -592 108 -213 90 -433 268 -574 464 -71 100 -165 293 -198 407 -121
422 -40 866 223 1217 30 40 270 290 534 555 264 264 495 504 513 531 131 195
102 466 -66 635 -126 126 -315 179 -485 135 -136 -36 -143 -42 -686 -584 -502
-502 -600 -610 -717 -789 -405 -618 -500 -1387 -260 -2092 21 -63 74 -187 118
-275 129 -264 262 -447 476 -655 371 -361 807 -578 1324 -657 160 -24 518 -24
685 0 481 72 910 277 1278 612 184 167 2052 2048 2121 2135 266 337 432 714
503 1145 28 172 25 575 -6 748 -70 398 -218 742 -451 1052 -102 136 -271 306
-337 339 -121 60 -276 73 -393 33z"/>
</g>
</svg>
