<?xml version="1.0" standalone="no"?>
<!DOCTYPE svg PUBLIC "-//W3C//DTD SVG 20010904//EN"
 "http://www.w3.org/TR/2001/REC-SVG-20010904/DTD/svg10.dtd">
<svg version="1.0" xmlns="http://www.w3.org/2000/svg"
 width="512.000000pt" height="512.000000pt" viewBox="0 0 512.000000 512.000000"
 preserveAspectRatio="xMidYMid meet">
<metadata>
Created by potrace 1.16, written by Peter Selinger 2001-2019
</metadata>
<g transform="translate(0.000000,512.000000) scale(0.100000,-0.100000)"
fill="#000000" stroke="none">
<path d="M3395 4705 c-148 -27 -322 -108 -495 -230 -89 -63 -249 -196 -304
-254 l-39 -40 -66 62 c-221 207 -454 358 -664 429 -110 36 -260 49 -348 28
-190 -45 -322 -192 -381 -425 -21 -81 -23 -113 -22 -305 0 -216 12 -319 58
-512 l13 -57 -96 -32 c-522 -173 -830 -439 -848 -734 -21 -329 284 -614 860
-805 92 -30 98 -34 93 -56 -93 -371 -115 -708 -60 -934 38 -154 137 -306 241
-367 153 -89 366 -86 589 10 165 71 377 216 541 371 l88 83 99 -89 c250 -224
479 -363 691 -419 100 -27 256 -26 337 2 174 58 288 203 340 432 17 74 21 126
22 267 0 214 -23 385 -88 640 -7 24 -3 26 136 73 397 134 674 329 777 547 180
380 -128 756 -802 979 -78 26 -97 36 -93 49 8 27 43 210 57 297 8 47 13 161
13 275 -1 177 -3 204 -27 292 -66 247 -207 395 -407 427 -81 14 -127 13 -215
-4z m-1642 -236 c177 -60 454 -244 609 -406 l37 -38 -95 -110 c-52 -60 -136
-164 -186 -230 l-91 -120 -71 -7 c-131 -13 -300 -39 -450 -69 -81 -17 -150
-29 -151 -27 -9 9 -55 280 -65 383 -34 340 51 586 220 640 57 19 160 12 243
-16z m1883 3 c152 -78 219 -311 185 -647 -10 -97 -56 -353 -65 -362 -1 -1 -67
11 -147 27 -149 30 -320 56 -448 68 l-75 7 -93 120 c-52 66 -136 170 -189 230
l-95 110 63 58 c238 221 493 375 678 411 51 9 146 -2 186 -22z m-971 -729 c54
-65 105 -126 113 -135 14 -16 0 -17 -221 -20 l-235 -3 18 25 c36 50 211 250
219 250 4 0 52 -53 106 -117z m311 -408 c71 -87 260 -402 382 -634 l70 -134
-58 -118 c-75 -148 -192 -353 -282 -491 l-69 -107 -67 -8 c-88 -10 -685 -10
-784 0 l-77 9 -69 106 c-130 203 -332 569 -332 603 0 16 157 312 233 439 28
47 91 147 139 222 l89 137 62 4 c34 2 214 4 401 3 l338 -1 24 -30z m-1116 -10
c0 -3 -30 -54 -67 -113 -38 -60 -102 -170 -143 -245 -41 -75 -78 -137 -81
-137 -8 0 -68 155 -119 307 l-38 111 162 31 c134 26 196 37 279 50 4 0 7 -1 7
-4z m1606 -31 c72 -13 153 -28 181 -34 l51 -11 -19 -57 c-51 -162 -127 -362
-137 -362 -4 0 -34 51 -67 112 -33 62 -97 172 -142 245 -46 74 -83 136 -83
138 0 6 48 -1 216 -31z m-2222 -223 c31 -98 106 -290 183 -472 15 -37 15 -38
-50 -190 -36 -85 -85 -208 -108 -274 -24 -66 -44 -122 -46 -124 -7 -10 -264
88 -378 144 -276 137 -415 280 -423 438 -4 58 0 75 24 125 61 125 251 273 474
368 61 25 269 103 280 103 3 1 22 -53 44 -118z m2774 84 c331 -115 580 -280
655 -434 114 -232 -142 -497 -647 -670 -124 -43 -146 -48 -146 -31 0 19 -92
265 -151 401 l-58 137 64 149 c35 83 89 225 121 317 31 91 58 166 59 166 2 0
48 -16 103 -35z m-2270 -1170 c19 -33 42 -70 49 -81 l14 -21 -88 14 c-109 17
-274 50 -280 56 -3 4 74 220 112 311 l16 38 70 -128 c39 -71 87 -156 107 -189z
m1832 230 c18 -44 47 -121 65 -172 l34 -92 -52 -11 c-78 -18 -312 -58 -315
-55 -2 2 24 50 59 107 34 56 87 149 117 206 30 57 56 102 57 100 2 -2 18 -39
35 -83z m-2025 -510 c118 -22 304 -50 380 -57 24 -2 39 -16 77 -68 109 -149
222 -291 304 -384 l88 -100 -75 -69 c-41 -37 -120 -103 -176 -146 -476 -360
-777 -339 -854 60 -17 89 -14 322 6 454 17 115 60 319 71 337 3 5 16 7 28 4
11 -3 80 -17 151 -31z m2195 -2 c19 -67 59 -276 70 -363 14 -119 13 -315 -4
-402 -51 -262 -190 -362 -420 -299 -179 49 -417 200 -618 392 l-67 64 100 115
c55 63 147 178 205 255 141 188 138 185 172 185 47 0 295 38 417 64 61 13 115
24 122 25 7 0 17 -16 23 -36z m-900 -91 c0 -7 -179 -228 -242 -298 l-54 -60
-70 80 c-79 91 -224 271 -224 278 0 2 133 4 295 4 162 0 295 -2 295 -4z"/>
<path d="M2450 3064 c-197 -42 -353 -200 -395 -399 -18 -88 -18 -122 0 -210
42 -201 199 -358 400 -400 39 -8 86 -15 105 -15 63 0 174 29 239 62 84 43 176
135 219 219 33 65 62 176 62 239 0 19 -7 67 -15 105 -42 201 -199 358 -400
400 -85 18 -130 18 -215 -1z"/>
</g>
</svg>
